<?xml version="1.0" encoding="utf-8"?>
<!-- Generator: Adobe Illustrator 24.3.0, SVG Export Plug-In . SVG Version: 6.00 Build 0)  -->
<svg version="1.1" id="Layer_1" xmlns="http://www.w3.org/2000/svg" xmlns:xlink="http://www.w3.org/1999/xlink" x="0px" y="0px"
	 viewBox="0 0 228.91 94.7" style="enable-background:new 0 0 228.91 94.7;" xml:space="preserve">
<style type="text/css">
	.st0{fill:#FFFFFF;}
	.st1{fill:#273D80;}
	.st2{fill:#F8982C;}
	.st3{fill:#F5B724;stroke:#F5B724;stroke-width:0.75;stroke-miterlimit:10;}
	.st4{fill:#7C3894;stroke:#7C3894;stroke-width:0.75;stroke-miterlimit:10;}
	.st5{fill:#F5B724;stroke:#F5B724;stroke-width:0.25;stroke-miterlimit:10;}
	.st6{fill:#7C3894;stroke:#7C3894;stroke-width:0.25;stroke-miterlimit:10;}
	.st7{fill:#F5B724;}
	.st8{fill:#7C3894;}
	.st9{fill:#FFFFFF;stroke:#000000;}
	.st10{fill:#F5B724;stroke:#F5B724;stroke-width:0.2;stroke-miterlimit:10;}
	.st11{fill:#7C3894;stroke:#7C3894;stroke-width:0.2;stroke-miterlimit:10;}
</style>
<g>
	<path class="st0" d="M167.56,27.38c-4.31,0-10.49,1.95-10.49,3.1c0,0.34,0.06,0.53,0.2,0.87l0.87,2.35
		c0.07,0.2,0.28,0.34,0.47,0.34c0.61,0,3.7-2.15,8.21-2.15c4.77,0,5.98,2.15,5.98,6.05v2.42c-4.17,0.13-17.63,0.34-17.63,11.7
		c0,5.99,3.43,9.49,8.75,9.49c7.86,0,14-1.28,14-10.42V36.8C177.93,31.15,175.29,27.38,167.56,27.38z M172.81,54.09
		c-0.1,2.13-4.17,3.02-7.67,3.02c-3.43,0-4.91-2.75-4.91-5.44c0-7.06,9.62-7.06,12.58-7.14V54.09z"/>
	<path class="st0" d="M141.72,27.38c-7.4,0-14.06,3.1-14.06,11.57v34.92c0,0.34,0,0.87,0.47,0.87c0.47-0.07,0.27,0,0.81-0.13
		l3.36-0.81c0.27-0.07,0.48-0.34,0.48-0.8V59.27c1.81,1.15,4.1,2.29,8.2,2.29c7.81,0,11.24-8.08,11.24-17.77
		C152.22,35.45,148.93,27.38,141.72,27.38z M140.38,57.05c-3.36,0-5.45-1.08-7.6-2.22c0,0,0-14.48,0-17.13
		c-0.01-1.61,0.49-5.85,8-5.81c5.45,0.03,5.93,6.39,5.93,12.04C146.71,50.46,146.17,57.05,140.38,57.05z"/>
	<path class="st0" d="M206.41,27.32h-3.43c-0.54,0-0.81,0.27-0.81,0.8v9.57c-0.01,2.66,0,17.13,0,17.13
		c-2.15,1.14-4.23,2.22-7.6,2.22c-5.79,0-6.76-6.59-6.76-13.12l0.03-15.53c0-0.61-0.14-1.01-0.88-1.01h-3.43
		c-0.54,0-0.81,0.26-0.81,0.8v15.87c0,9.42,3.44,17.5,11.24,17.5c4.1,0,6.6-1.38,8.43-2.53l-0.1,8.8c-0.2,3.4-1.38,6.2-3.79,6.85
		c-3.19,0.86-6.2-1.06-6.92-0.86c-0.19,0.05-0.35,0.23-0.37,0.45l-0.6,2.95c-0.03,0.15-0.06,0.29-0.03,0.43
		c0.27,0.97,5.36,2.05,9.06,1.05c3.57-0.96,6.22-3.89,6.79-6.97c0.85-4.62,0.85-8.27,0.85-17.91V38.95V28.33
		C207.28,27.72,207.15,27.32,206.41,27.32z"/>
	<path class="st0" d="M48.77,12.33c-2.28,0-4.1,1.82-4.1,4.1c0,2.29,1.82,4.1,4.1,4.1c2.29,0,4.11-1.88,4.11-4.1
		C52.87,14.21,51.06,12.33,48.77,12.33z"/>
	<path class="st0" d="M50.78,28.27h-3.43c-0.54,0-0.81,0.27-0.81,0.81v30.68c0,0.54,0.27,0.81,0.81,0.81h3.5
		c0.54,0,0.81-0.27,0.81-0.81V29.28C51.66,28.68,51.53,28.27,50.78,28.27z"/>
	<path class="st0" d="M69.08,27.33c-4.3,0-10.49,1.95-10.49,3.1c0,0.33,0.07,0.53,0.2,0.87l0.88,2.36c0.07,0.21,0.27,0.34,0.47,0.34
		c0.6,0,3.69-2.15,8.21-2.15c4.78,0,5.99,2.15,5.99,6.06v2.42c-4.17,0.14-17.63,0.34-17.63,11.71c0,5.99,3.43,9.48,8.75,9.48
		c7.86,0,13.99-1.27,13.99-10.42V36.75C79.44,31.09,76.82,27.33,69.08,27.33z M74.33,54.03c-0.1,2.13-4.17,3.03-7.67,3.03
		c-3.42,0-4.91-2.75-4.91-5.44c0-7.06,9.62-7.06,12.59-7.13V54.03z"/>
	<path class="st0" d="M28.05,36.14c0-3.09,2.29-4.44,4.98-4.44c3.5,0,6.32,1.82,6.79,1.82c0.41,0,0.54-0.27,0.81-0.81l0.88-1.82
		c0.07-0.27,0.27-0.47,0.27-0.67c0-0.34-0.2-0.61-0.73-0.87c-1.76-0.94-5.66-2.02-7.94-2.02c-5.92,0-10.16,3.9-10.16,9.35
		c0,10.17,14.94,8.62,14.94,15.61c0,3.23-2.49,4.85-5.38,4.85c-4.57,0-8.07-2.35-8.68-2.35c-0.2,0-0.4,0.14-0.61,0.61l-0.94,2.08
		C22.13,57.74,22,57.94,22,58.28c0,1.34,6.99,3.22,10.23,3.22c5.79,0,10.76-3.22,10.76-9.55C42.99,41.46,28.05,43.54,28.05,36.14z"
		/>
	<path class="st0" d="M113.75,27.37h-1.55c-1.37,0.08-2.51,0.37-3.5,0.75c-0.28,0.11-0.54,0.23-0.8,0.35
		c-0.38,0.2-0.98,0.53-1.75,1.02c-0.17,0.12-0.35,0.24-0.51,0.36v-0.03c-0.77,0.51-1.68,1.17-2.68,1.95
		c-1.46-2.45-3.51-4.04-6.2-4.28h-1.54c-2.98,0.18-4.92,1.33-6.37,2.36V28.3c0-0.32-0.04-0.58-0.17-0.75l0-0.04h-0.03
		c-0.11-0.12-0.29-0.19-0.55-0.19h-2.99c-0.23,0-0.4,0.06-0.52,0.19h-0.16c0,0.14,0,0.29,0,0.43c-0.01,0.05-0.02,0.1-0.02,0.16v7.13
		v1.62v23.85c0,0.61,0.11,1.01,0.76,1.01h2.99c0.47,0,0.7-0.27,0.7-0.8v-9.57c0.01-2.17,0-12.19,0-15.82c0.83-1.53,2-2.38,2.95-2.86
		c1.05-0.41,2.23-0.67,3.68-0.67c5.04,0,5.89,6.59,5.89,13.12l-0.02,15.53c0,0.61,0.11,1.01,0.76,1.01h2.99
		c0.24,0,0.42-0.07,0.54-0.21c0.13-0.13,0.2-0.34,0.2-0.62v-9.59c0.01-2.13,0-11.86,0-15.64c1.26-2.4,3.34-3.21,4.21-3.45
		c0.12-0.03,0.23-0.06,0.35-0.09c0.03-0.01,0.05-0.01,0.05-0.01l0.02-0.01c0.61-0.12,1.28-0.19,2.01-0.19
		c5.05,0,5.89,6.6,5.89,13.13l-0.02,15.56c0,0.61,0.12,1.01,0.76,1.01h2.99c0.47,0,0.71-0.27,0.71-0.8V44.86
		C122.8,35.78,120.02,27.95,113.75,27.37z"/>
</g>
</svg>
